/* XPM */
static char *icewm_xpm[] = {
"75 24 193 2",
"AA	c #FFFFFF",
"BA	c #E6E6E6",
"CA	c #D5D5D5",
"DA	c #B3B3B3",
"EA	c #A7A7A7",
"FA	c #ADADAD",
"GA	c #DBDBDB",
"HA	c #E8E8E8",
"IA	c #C9C9C9",
"JA	c #CACACA",
"KA	c #DADADA",
"LA	c #EEEEEE",
"MA	c #B6B6B6",
"NA	c #B9B9B9",
"OA	c #545454",
"PA	c #707070",
"QA	c #808080",
"RA	c #858585",
"SA	c #A1A1A1",
"TA	c #D2D2D2",
"UA	c #E9E9E9",
"VA	c #AEAEAE",
"WA	c #B1B1B1",
"XA	c #7E7E7E",
"YA	c #787878",
"ZA	c #5F5F5F",
"aA	c #A2A2A2",
"bA	c #C1C1C1",
"cA	c #ABABAB",
"dA	c #242424",
"eA	c #AFAFAF",
"fA	c #CCCCCC",
"gA	c #EFEFEF",
"hA	c #E7E7E7",
"iA	c #D6D6D6",
"jA	c #E3E3E3",
"kA	c #FEFEFE",
"lA	c #E0E0E0",
"mA	c #D9D9D9",
"nA	c #BBBBBB",
"oA	c #4A4A4A",
"pA	c #C2C2C2",
"qA	c #E2E2E2",
"rA	c #232323",
"sA	c #E5E5E5",
"tA	c #D8D8D8",
"uA	c #C7C7C7",
"vA	c #E4E4E4",
"wA	c #CECECE",
"xA	c #D0D0D0",
"yA	c #F7F7F7",
"zA	c #272727",
"0A	c #EBEBEB",
"1A	c #DCDCDC",
"2A	c #1E1E1E",
"3A	c #C4C4C4",
"4A	c #FCFCFC",
"5A	c #E1E1E1",
"6A	c #C5C5C5",
"7A	c #6A6A6A",
"8A	c #323232",
"9A	c #A9A9A9",
"+A	c #717171",
"/A	c #5C5C5C",
"AB	c #F0F0F0",
"BB	c #3D3D3D",
"CB	c #BABABA",
"DB	c #D1D1D1",
"EB	c #2A2A2A",
"FB	c #EAEAEA",
"GB	c #BCBCBC",
"HB	c #282828",
"IB	c #020202",
"JB	c #0A0A0A",
"KB	c #090909",
"LB	c #000000",
"MB	c #636363",
"NB	c #252525",
"OB	c #FDFDFD",
"PB	c #F6F6F6",
"QB	c #4D4D4D",
"RB	c #D3D3D3",
"SB	c #D7D7D7",
"TB	c #F2F2F2",
"UB	c #2D2D2D",
"VB	c #959595",
"WB	c #797979",
"XB	c #D4D4D4",
"YB	c #CFCFCF",
"ZB	c #DEDEDE",
"aB	c #626262",
"bB	c #414141",
"cB	c #3E3E3E",
"dB	c #CDCDCD",
"eB	c #151515",
"fB	c #969696",
"gB	c #9C9C9C",
"hB	c #484848",
"iB	c #565656",
"jB	c #DDDDDD",
"kB	c #A3A3A3",
"lB	c #BEBEBE",
"mB	c #0E0E0E",
"nB	c #CBCBCB",
"oB	c #676767",
"pB	c #4F4F4F",
"qB	c #0D0D0D",
"rB	c #C8C8C8",
"sB	c #444444",
"tB	c #191919",
"uB	c #C3C3C3",
"vB	c #898989",
"wB	c #161616",
"xB	c #434343",
"yB	c #6C6C6C",
"zB	c #B7B7B7",
"0B	c #171717",
"1B	c #1C1C1C",
"2B	c #9F9F9F",
"3B	c #C6C6C6",
"4B	c #7A7A7A",
"5B	c #949494",
"6B	c #A6A6A6",
"7B	c #7B7B7B",
"8B	c #B8B8B8",
"9B	c #B4B4B4",
"+B	c #EDEDED",
"/B	c #F4F4F4",
"AC	c #BDBDBD",
"BC	c #838383",
"CC	c #9E9E9E",
"DC	c #777777",
"EC	c #FAFAFA",
"FC	c #747474",
"GC	c #060606",
"HC	c #0B0B0B",
"IC	c #1F1F1F",
"JC	c #4B4B4B",
"KC	c #424242",
"LC	c #939393",
"MC	c #F8F8F8",
"NC	c #9A9A9A",
"OC	c #474747",
"PC	c #A4A4A4",
"QC	c #BFBFBF",
"RC	c #A5A5A5",
"SC	c #686868",
"TC	c #8B8B8B",
"UC	c #494949",
"VC	c #070707",
"WC	c #303030",
"XC	c #8F8F8F",
"YC	c #8D8D8D",
"ZC	c #F1F1F1",
"aC	c #9D9D9D",
"bC	c #1A1A1A",
"cC	c #DFDFDF",
"dC	c #141414",
"eC	c #3C3C3C",
"fC	c #5E5E5E",
"gC	c #292929",
"hC	c #313131",
"iC	c #050505",
"jC	c #040404",
"kC	c #333333",
"lC	c #8E8E8E",
"mC	c #111111",
"nC	c #181818",
"oC	c #121212",
"pC	c #AAAAAA",
"qC	c #1D1D1D",
"rC	c #080808",
"sC	c #010101",
"tC	c #767676",
"uC	c #505050",
"vC	c #6F6F6F",
"wC	c #F3F3F3",
"xC	c #222222",
"yC	c #353535",
"zC	c #202020",
"0C	c #2E2E2E",
"1C	c #F9F9F9",
"2C	c #030303",
"3C	c #7C7C7C",
"4C	c #A0A0A0",
"5C	c #585858",
"6C	c #F5F5F5",
"7C	c #666666",
"8C	c #7D7D7D",
"9C	c #FBFBFB",
"+C	c #828282",
"/C	c #818181",
"AD	c #515151",
"AAAAAABACADAEAFAGAAAAAAAAAAAAAAAAAHAIAJAKALAAAAAAAAAAAAAAAAAAAAAAAAAAAAAAAAAAAAAAAAAAAAAAAAAAAAAAAAAAAAAAAAAAAAAAAAAAAAAAAAAAAAAAAAAAAAAAAAAAAAAAAAAAA",
"AAAAMANAOAPAQARADASATAAAAAAAAAUAVAWAXAYAZAaAbAAAAAAAAAAAAAAAAAAAAAAAAAAAAAAAAAAAAAAAAAAAAAAAAAAAAAAAAAAAAAAAAAAAAAAAAAAAAAAAAAAAAAAAAAAAAAAAAAAAAAAAAA",
"AAMAcAdAeAfAgAhAiAjAAAAAAAkAAAAAlAmAhAhAnAoAQApAAAAAAAAAAAAAAAAAAAAAAAAAAAAAAAAAAAAAAAAAAAAAAAAAAAAAAAAAAAAAAAAAAAAAAAAAAAAAAAAAAAAAAAAAAAAAAAAAAAAAAA",
"BAqArAVAsAAAAAAALAtAJAuAvAAAwAxAlAyAAAAAAAuAzAwA0AAAAAAAAAAAAAAAAAAAAAAAAAAAAAAAAAAAAAAAAAAAAAAAAAAAAAAAAAAAAAAAAAAAAAAAAAAAAAAAAAAAAAAAAAAAAAAAAAAAAA",
"xA1A2A3AAA4AAA5A6A7AzA8A9APA+AzA/A3AgAAAAAABBBCBGAAAAAAAAAAAAAAAAAAAAAAAAAAAAAAAAAAAAAAAAAAAAAAAAAAAAAAAAAAAAAAAAAAAAAAAAAAAAAAAAAAAAAAAAAAAAAAAAAAAAA",
"DB6AEBmAAAAAFBGBHBIBJBKBLBAATAMBLBNB3AOBAAPBQBEARBAAAAAAAAAAAAAAAAAAAAAAAAAAAAAAAAAAAAAAAAAAAAAAAAAAAAAAAAAAAAAAAAAAAAAAAAAAAAAAAAAAAAAAAAAAAAAAAAAAAA",
"xASBrAGBAATBNAUBrA7AVBWBXBYBZBfAaBbBcBmAAAqAcBGBdBAAAAAAAAAAAAAAAAAAAAAAAAAAAAAAAAAAAAAAAAAAAAAAAAAAAAAAAAAAAAAAAAAAAAAAAAAAAAAAAAAAAAAAAAAAAAAAAAAAAA",
"CAUAeBfBYBgBhBfAAAlAiBAAjB6AgBYBkBAAVBBBlBVAmBKACAAAAAAAAAAAAAAAAAAAAAAAAAAAAAAAAAAAAAAAAAAAAAAAAAAAAAAAAAAAAAAAAAAAAAAAAAAAAAAAAAAAAAAAAAAAAAAAAAAAAA",
"yAnBoBLBpBqB0AAAFBWAYBFBrBXBAAWBCACAAAsBtBLBoBuB4AAAAAAAAAAAAAAAAAAAAAAAAAAAAAAAAAAAAAAAAAAAAAAAAAAAAAAAAAAAAAAAAAAAAAAAAAAAAAAAAAAAAAAAAAAAAAAAAAAAAA",
"AAdB1AvBwBYAAAOB4AyAvAxByBkA4AzB0BSBAACB1B2BXBSBAAAAAAAAAAAAAAAAAAAAAAAAAAAAAAAAAAAAAAAAAAAAAAAAAAAAAAAAAAAAAAAAAAAAAAAAAAAAAAAAAAAAAAAAAAAAAAAAAAAAAA",
"kAAArB3BVASBAAkA4ArBAAIAuBTBAAAA4BKAAAAA5BxAGAAAkAAAAAAAAAAAAAAAAAAAAAAAAAAAAAAAAAAAAAAAAAAAAAAAAAAAAAAAAAAAAAAAAAAAAAAAAAAAAAAAAAAAAAAAAAAAAAAAAAAAAA",
"AAkAAAAA9AABkAAA6BpAAAAAAAAATBAA0A7BDBABGA8BAAkAAAAAAAAAAAAAAAAAAAAAAAAAAAAAAAAAAAAAAAAAAAAAAAAAAAAAAAAAAAAAAAAAAAAAAAAAAAAAAAAAAAAAAAAAAAAAAAAAAAAAAA",
"AAAAOBAAaAAAAA9BnB+BAAAA/BXACAACAAeAeArBfAjAAAAAAAAAAAAAAAAAAAAAAAAAAAAAAAAAAAAAAAAAAAAAAAAAAAAAAAAAAAAAAAAAAAAAAAAAAAAAAAAALBLBAAAAAAAAAAAAAAAAAAAAAA",
"AAkAAAeAnBfB6BBCAAAA/B/BLACCDChADBAAECuBAAAALAFCNBGCHCICJCAAAAAALBLBKCkAAAAAAALBLBAAAALBLBAAAAAAAALBLBAAAAAAAAAAAAAAAAAAAAAALBLBAAAAAAAAAAAAAAAAAAAAAA",
"AAkAAADAlBLCAAkBMCAAMCvAjBAAMCSBAAAApACAAAFBrAHCNC0ATBzBOCAAAAAALBLBLB5BAAAAAALBLBAAAALBLBAAAAAAAALBLBAAAAAAAAAAAAAAAAAAAAAAAAAAAAAAAAAAAAAAAAAAAAAAAA",
"AAAAkAAAAAPCOBSBQCAAkAAARCAAAAAAAA6A9AAAkASCLBTCAAAAAAAAAAAAAAAALBLBUCHC1AAAAALBLBAAAALBLBAAAAAAAALBLBAAAALBLB2BNBVCWC6AAAAALBLBAAaBLBLCAAAAXCLBMBAAAA",
"AAAAAAkAAAeA0AAAYCTAAAAAZCcALAjAnAGBaCAAkAbCLBcCAAAAAAAAAAAAAAAALBLBhAdCeCOBAALBLBAAAALBLBAAAAAAAALBLBAAAALBLBfCgARCLBgCAAAALBLBAAyAhCiC3AuBjCkCMCAAAA",
"AAAAAAAAAAcCbAAAMClCAAOBAAZCdBlAMCRCABAAAAiCLByAAAAAAALBLBLBAAAALBLBAAVALBTCAALBLBAAAALBLBAAAAAAAALBLBAAAALBLBvAAAECLBIBAAAALBLBAAAAZBmCtBnCoClAAAAAAA",
"AAAAAAAAkAAA6BAAAANAWBAAAAAApCYABCnAAAAAAAqCLBmAAAAAAAAALBLBAAAALBLBAAAAaBrCiALBLBAAAALBLBAAAAAAAALBsCAAAALBLBAAAAAALBLBAAAALBLBAAAAAAtCLBLBtCAAAAAAAA",
"AAAAAAAAAAAAPBCBAAAAFCuCvAAALAhAIAAAkAAAAAvCLBDCAAAAAAAALBLBAAAALBLBAAAAwCxCyCLBLBAAAAICLBUAAAAAHALBzCAAAALBLBAAAAAALBLBAAAALBLBAAAATArCgCgCrCDBAAAAAA",
"AAAAAAAAAAAAAAZCcCAA3ANBBCAAyAaA3BAAAAAAAAgA0CjCYAKA1CGALBLBAAAALBLBAAAAAA3B2CLBLBAAAA4BLBSC+B+BoBLB3CAAAALBLBAAAAAALBLBAAAALBLBAA/BHBHCCAXBJBHB/BAAAA",
"AAAAAAAAAAAAAAAAAAAAMC4C5CLCnCZAAA4AAAAAAAAA6CBC0CKBGCeBkC7CAAAALBLBAAAAAAAA8CLBLBAAAA9CQAzAGCGCzA+C4AAAAALBLBAAAAAALBLBAAAALBLBAAfCLBaAAAAAaALBfCAAAA",
"AAAAAAAAAAAAAAAAAAAATBOB/CmCmBLBADAAAAAAAAAAAAAAAAAAAAAAAAAAAAAAAAAAAAAAAAAAAAAAAAAAAAAAAAAAAAAAAAAAAAAAAAAAAAAAAAAAAAAAAAAAAAAAAAAAAAAAAAAAAAAAAAAAAA",
"AAAAAAAAAAAAAAAAAAAAAAAAAAuAFAnA1AAAAAAAAAAAAAAAAAAAAAAAAAAAAAAAAAAAAAAAAAAAAAAAAAAAAAAAAAAAAAAAAAAAAAAAAAAAAAAAAAAAAAAAAAAAAAAAAAAAAAAAAAAAAAAAAAAAAA"
};
